PathFileType	4	(X/Y/Z)	C:/Users/opensim2020/Desktop/walking_exp_matlab/subject06_walking16_straight_02.trc	
DataRate	CameraRate	NumFrames	NumMarkers	Units	OrigDataRate	OrigDataStartFrame	OrigNumFrames	
100.00	100.00	5	51	mm	100.00	2060	283	
Frame#	Time	LFHD			RFHD			LBHD			RBHD			C7			T10			CLAV			STRN			RBAK			LSHO			LUPA			LELB			LFRM			LWRA			LWRB			LFIN			RSHO			RUPA			RELB			RFRM			RWRA			RWRB			RFIN			LASI			RASI			LPSI			RPSI			LTHI			LKNE			LTIB			LANK			LHEE			LTOE			RTHI			RKNE			RTIB			RANK			RHEE			RTOE			*39			*40			*41			*42			*43			*44			*45			*46			*47			*48			*49			*50			
		X1	Y1	Z1	X2	Y2	Z2	X3	Y3	Z3	X4	Y4	Z4	X5	Y5	Z5	X6	Y6	Z6	X7	Y7	Z7	X8	Y8	Z8	X9	Y9	Z9	X10	Y10	Z10	X11	Y11	Z11	X12	Y12	Z12	X13	Y13	Z13	X14	Y14	Z14	X15	Y15	Z15	X16	Y16	Z16	X17	Y17	Z17	X18	Y18	Z18	X19	Y19	Z19	X20	Y20	Z20	X21	Y21	Z21	X22	Y22	Z22	X23	Y23	Z23	X24	Y24	Z24	X25	Y25	Z25	X26	Y26	Z26	X27	Y27	Z27	X28	Y28	Z28	X29	Y29	Z29	X30	Y30	Z30	X31	Y31	Z31	X32	Y32	Z32	X33	Y33	Z33	X34	Y34	Z34	X35	Y35	Z35	X36	Y36	Z36	X37	Y37	Z37	X38	Y38	Z38	X39	Y39	Z39	X40	Y40	Z40	X41	Y41	Z41	X42	Y42	Z42	X43	Y43	Z43	X44	Y44	Z44	X45	Y45	Z45	X46	Y46	Z46	X47	Y47	Z47	X48	Y48	Z48	X49	Y49	Z49	X50	Y50	Z50	X51	Y51	Z51	

107	1.060	1506.96350	586.45459	1654.82178	1376.26953	594.44427	1638.55688	1517.30286	720.33160	1602.42651	1389.53601	727.05896	1591.85913	1464.13098	729.80237	1444.77112	1452.85071	766.05200	1114.94604	1460.82080	621.64661	1363.94568	1470.80676	588.33307	1186.67236	1387.11340	807.58026	1272.96167	1623.27148	669.81329	1396.09631	1701.86597	646.74463	1196.99011	1719.04138	626.07642	1085.99683	1722.84253	541.31757	960.75409	1657.46008	448.09518	888.33789	1702.44116	491.13913	854.10352	1685.97681	418.77719	801.94800	1299.83630	669.14386	1393.41797	1216.15430	720.90735	1195.61877	1206.83984	718.17755	1072.66846	1193.95618	706.83771	952.13086	1230.46997	652.31274	813.11487	1189.50696	706.04828	813.99628	1191.50549	670.40625	737.48199	1574.22375	600.18610	947.92432	1351.01282	581.07819	959.53442	1530.79651	753.13745	983.37158	1362.90759	734.15509	987.27295	1618.17688	721.71332	644.76733	1595.37170	763.68762	485.38751	1589.55530	890.72058	260.08157	1545.37366	961.35834	101.52807	1504.05566	1007.89148	101.10981	1529.44397	830.52167	39.42395	1279.84766	578.57214	636.72083	1307.53027	544.48962	517.44592	1292.21350	520.24194	259.38074	1325.37292	484.75772	74.74844	1366.25464	521.55585	43.62925	1348.01123	327.82846	56.18973	1452.48914	690.03711	1692.18591																																	 
108	1.070	1504.91919	578.78247	1655.86731	1374.45190	586.75409	1639.53955	1515.74878	713.11212	1603.78174	1387.59705	719.34796	1592.91406	1462.29492	721.98987	1445.65588	1451.30688	757.53632	1115.92786	1459.24243	613.72650	1365.13550	1469.17505	579.95306	1187.91406	1385.14441	799.21307	1273.81250	1621.56409	662.25671	1397.11719	1700.02905	639.16565	1197.94165	1716.92859	618.62524	1086.89539	1720.85498	534.90894	960.95013	1655.68958	442.33020	887.59369	1700.67773	485.38120	853.50098	1684.55164	413.66544	801.10205	1298.17554	660.99725	1394.44824	1213.90381	712.13489	1196.53491	1205.32996	709.14130	1073.47717	1192.42920	698.42920	952.89233	1229.04065	645.17163	813.45062	1187.77527	698.55145	814.73346	1189.89111	663.41071	737.89838	1572.82361	591.94958	948.72894	1349.88354	572.34827	960.76910	1529.57849	744.65637	984.57202	1361.85681	725.65198	988.88354	1617.37830	714.45306	645.83234	1594.93945	756.82764	486.49106	1590.02271	887.02417	262.90076	1546.36462	959.42621	104.82858	1505.14771	1005.80554	105.17950	1529.69788	830.16711	39.31958	1278.75293	571.83539	637.72491	1305.72888	538.77258	518.09070	1291.12183	515.20007	259.44141	1324.63660	482.75018	74.48708	1365.39893	520.48932	44.14021	1348.99341	326.47968	52.68899	1450.48816	682.32410	1693.29321																																	 
109	1.080	1503.28430	571.25537	1657.12305	1372.65662	579.07318	1640.54712	1513.82837	705.52277	1605.07593	1385.69727	711.64899	1594.07068	1460.52344	714.36786	1446.49695	1449.74512	748.84277	1116.92944	1457.63696	605.84344	1366.38159	1467.59619	571.29810	1189.31812	1383.30005	790.80334	1274.65186	1619.85742	654.77362	1398.40686	1698.00720	631.58051	1199.22449	1714.68469	611.04291	1088.16528	1718.86255	528.57458	961.37164	1654.02795	436.81808	886.83478	1698.85815	480.49158	853.43799	1683.25708	409.01401	800.24457	1296.61890	652.96222	1395.70435	1212.30420	702.94952	1197.61292	1203.82935	700.04498	1074.61047	1190.86353	689.88928	953.93243	1227.40173	637.85205	813.97064	1185.93433	690.97650	815.71277	1188.15405	656.45923	738.57758	1571.31042	583.50684	949.74927	1348.78259	563.69672	962.23883	1528.33423	736.07996	985.99103	1360.76978	716.98792	990.40210	1616.47620	706.89026	646.91943	1594.45630	749.47394	487.65549	1590.38049	883.06982	265.90631	1547.39819	957.21594	108.38141	1506.33716	1003.36011	109.56159	1529.98120	829.69250	39.19014	1277.27026	564.87500	638.87592	1304.37451	532.14447	519.28186	1289.75122	511.16895	259.37280	1323.73840	482.04974	73.80870	1364.61487	520.33411	44.22665	1349.13953	325.97964	49.01305	1448.44373	674.60107	1694.46387																																	 
110	1.090	1501.42163	563.63458	1658.37598	1370.90466	571.39020	1641.70422	1511.98438	697.97900	1606.42712	1383.85278	703.97681	1595.28345	1458.82715	706.70343	1447.40955	1448.13660	740.19141	1118.01587	1456.00659	597.76453	1367.74280	1465.97668	562.71472	1190.67737	1381.56702	782.38318	1275.45166	1618.14624	647.49963	1399.89441	1695.97913	623.98767	1200.68469	1712.27295	603.38452	1089.62708	1716.66650	522.51038	961.92017	1652.36816	431.55646	885.98755	1697.16968	475.73517	853.24823	1682.07837	404.82040	799.28021	1295.05444	645.03699	1397.13281	1210.93079	693.93738	1198.85266	1202.50549	690.66467	1075.89148	1189.26050	681.18463	955.18994	1225.56177	630.48828	814.69507	1183.96960	683.33490	816.89343	1186.32776	649.43512	739.45581	1569.73938	574.97968	950.81958	1347.58545	555.38843	963.71442	1526.98230	727.40009	987.46600	1359.48914	708.35773	992.04175	1615.55408	699.02911	648.08008	1593.86169	741.79456	488.95554	1590.72498	878.64795	269.10034	1548.44739	954.70966	112.15605	1507.45532	1000.83429	114.38558	1530.25293	829.26550	39.13874	1275.68494	557.55518	640.20380	1303.60352	525.00494	520.65314	1288.37598	507.54181	259.30972	1322.73425	481.50403	73.30750	1363.50208	520.12152	44.24689	1348.70422	325.73312	46.86735	1446.53442	666.93323	1695.73730																																	 
111	1.100	1499.54944	556.06110	1659.94275	1369.16748	563.73212	1643.09277	1510.20789	690.37195	1607.89978	1382.03613	696.29883	1596.59424	1457.03027	699.02753	1448.45313	1446.53088	731.53406	1119.19287	1454.43604	589.82672	1369.21106	1464.34912	554.19080	1192.18579	1379.91833	773.85229	1276.24829	1616.35034	640.08679	1401.46094	1693.98889	616.26807	1202.27722	1709.73608	595.82782	1091.18396	1714.87073	516.43182	962.51929	1650.79102	426.51920	885.10199	1695.57996	471.24109	853.06384	1680.93225	400.83752	798.24536	1293.48474	637.10779	1398.73633	1209.15295	684.80292	1200.27563	1201.12793	681.36871	1077.30615	1187.65454	672.52179	956.57599	1223.58179	622.85907	815.52936	1181.84924	675.72302	818.21979	1184.33423	642.42078	740.41986	1568.08862	566.38947	951.90845	1346.35754	547.32916	965.15198	1525.49744	718.69989	988.99756	1358.01587	699.69696	993.73840	1614.49963	690.88037	649.22607	1593.17957	733.37042	490.09384	1590.88477	873.50189	272.24731	1549.47559	951.88196	116.15214	1508.58948	997.78961	119.36568	1530.46301	828.73975	39.07966	1274.61194	549.57251	641.74670	1303.40271	517.80133	522.06989	1287.10657	504.67233	259.59769	1321.76965	480.81305	73.09770	1362.43542	519.73901	44.39440	1347.61780	325.13251	45.71966	1444.69324	659.32452	1697.12463																																	 
